<svg id="Layer_1" data-name="Layer 1" xmlns="http://www.w3.org/2000/svg" viewBox="0 0 637.41 272.25"><defs><style>.cls-1{fill:#090808;}.cls-2{fill:#03566b;}.cls-3{fill:#b42a32;}.cls-4{fill:#d44618;}</style></defs><title>FrameHBT</title><path stroke="black" stroke-width="1" class="cls-1" d="M567.2,314.55l.38-.22a1.28,1.28,0,0,0,1.12-.72,1.52,1.52,0,0,0,1.28-.7,118.84,118.84,0,0,1,13.41-5.69.93.93,0,0,0,1-.31,45.14,45.14,0,0,0,7.26-2.5,1.48,1.48,0,0,0,1-.9,3.26,3.26,0,0,0,1.79-1.59,5,5,0,0,0,2.17-1.73h.19l.06-.18,2.36-1h2.48l1.93.94.1.1a7.76,7.76,0,0,1,.76,2.74c-.17,5.81-.82,11.48-4.78,16.19-.15.18-.46.39-.22.83a49.67,49.67,0,0,0,6.93-2.55,1,1,0,0,0,1-.26,1.56,1.56,0,0,0,1.4-.24,1,1,0,0,0,1-.22,4.61,4.61,0,0,0,2.85-.68.93.93,0,0,0,1-.3,4,4,0,0,0,2.37-.67,1,1,0,0,0,1-.26,1.55,1.55,0,0,0,1.4-.27,1,1,0,0,0,1-.24.76.76,0,0,0,.93-.18.94.94,0,0,0,1-.23,60.14,60.14,0,0,0,7.64-2.2,1,1,0,0,0,1-.23,1.49,1.49,0,0,0,1.41-.25,1,1,0,0,0,1-.19,4.74,4.74,0,0,0,2.36-.29h4.4a2.77,2.77,0,0,0,1.88.23,1,1,0,0,0,1,.24.86.86,0,0,0,.92.27.82.82,0,0,0,.82.4L645,313.5c-.06,2.93-2.49,4-4.45,5.12-1.64,1-3.32,1.91-4.9,3a17.27,17.27,0,0,0-6.59,7.4,77,77,0,0,1-4.37,7.71,11.66,11.66,0,0,1-6,5,55,55,0,0,1-11.54,3.19,114.41,114.41,0,0,1-25.1,1.54,75.64,75.64,0,0,0-11.75.15,13,13,0,0,0-6.66,2.44,3.13,3.13,0,0,0-1.34,2.65,13.84,13.84,0,0,0,3,9.38,110.73,110.73,0,0,0,16,16.52,44.18,44.18,0,0,0,7.11,4.44c5.84,3.15,11.78,6.12,17.56,9.39,5.29,3,10.52,6.09,15.58,9.45,4.41,2.92,7,7.35,8.86,12.24a4.25,4.25,0,0,1,.24,2.12c-.53,3.05-.78,6.17-2,9.07a9.71,9.71,0,0,1-2.26,3.35c-3.26,3.07-6.69,5.95-10.09,8.87a18.27,18.27,0,0,1-4.55,2.64c-4,1.8-7.89,4-12.14,5.12-7.24,2-14.48,3.91-22.13,3.82q-20.4-.23-40.75-1.6a135.69,135.69,0,0,1-31.44-6.2,50.06,50.06,0,0,0-10.14-1.8,117.61,117.61,0,0,1-17.05-2.55c-3.33-.82-6.8-1-10.14-1.79-6.71-1.51-13.52-2.39-20.28-3.62-8-1.46-16.06-3-24.16-3.83a171.29,171.29,0,0,0-31.15,0c-1.59.13-3.19.24-4.79.28a146.31,146.31,0,0,0-25,2.78,20.37,20.37,0,0,0-3.89,1.21,40,40,0,0,1-4.45,1.78c-4.65,1.32-8.54,4-12.21,7a16.83,16.83,0,0,0-5.74,8.66c-.9,3.23-1.67,6.5-2.5,9.75-.16.62-.32,1.24-.52,1.84-1.54,4.49-4,5.88-8.7,4.87a4,4,0,0,1-3-2.23,13.27,13.27,0,0,1-.83-2.24,34.11,34.11,0,0,0-2.53-6.72,33.41,33.41,0,0,1-3-8.58,7.42,7.42,0,0,0-2.89-4.52,53.81,53.81,0,0,0-12.15-7.08c-10.48-4.5-21.55-5.24-32.62-6-7.09-.47-14.22-.59-21.34-.67a164.12,164.12,0,0,0-29.55,2.79c-12.68,2.16-25.3,4.83-38.2,5.53a43.54,43.54,0,0,0-6.38,1.06c-3.46.72-7,.66-10.45,1.37-4.92,1-10,1-14.84,2.62a22.44,22.44,0,0,1-3.07.49q-15,2.69-30.1,4.51a241.31,241.31,0,0,1-27.53,1.68c-2.32,0-4.64,0-7,.11-6.35.28-12.6-.63-18.86-1.48-3.64-.5-7.31-.85-10.91-1.63a32.74,32.74,0,0,1-15.09-7.44c-2-1.73-4.27-3.09-6.4-4.65a14.53,14.53,0,0,1-4.87-6.41,4.61,4.61,0,0,0-.27-.67c-2.71-4.49-1.39-8.72.76-12.93a36.1,36.1,0,0,1,8.15-10.25c2-1.77,4.32-2.7,6.56-3.91,4.64-2.51,9-5.5,13.75-7.82,6-2.92,11.87-5.93,17.84-8.83a12.22,12.22,0,0,0,4.42-3.58c1.91-2.46,3.87-4.89,5.79-7.34.6-.76,1.38-1.34,2-2,3.47-3.68,6.76-7.49,7.83-12.66a12.3,12.3,0,0,0,.26-1.41c.37-4.2-.85-5.73-5-6.25A61,61,0,0,0,73.69,347c-7.27.47-14.55.08-21.83.05a21.78,21.78,0,0,1-5.22-.72,73.21,73.21,0,0,0-7.76-1.55,14.54,14.54,0,0,1-11.44-8.49c-1.63-3.3-3.55-6.42-5.31-9.63a15.37,15.37,0,0,0-8.57-7,9.93,9.93,0,0,1-4.14-2.32c-3-3.13-2.2-6.48,2-7.63a24.75,24.75,0,0,1,8.81-.59c5,.43,9.71,1.88,14.5,3.12,2.86.74,5.73,1.48,8.62,2.07a23.87,23.87,0,0,1,3.62,1.22c.63.24,1.2.8,2.13.46-.49-1.93-.94-3.84-1.46-5.73a22.64,22.64,0,0,1-.76-5.93,4.46,4.46,0,0,1,3.89-4.71c3-.57,5.88-.49,8.22,2a10,10,0,0,0,5.28,2.62,81.59,81.59,0,0,1,8.7,2.62c2,.68,4,1,6,1.59a28.38,28.38,0,0,1,11.62,6.94c.35.33.66.69,1,1s.49.42.83.28.47-.59.35-1a15,15,0,0,0-1.92-4.63c-1.49-2.08-2.87-4.24-4.36-6.32-3-4.21-7.23-7-11.75-9.26a32.65,32.65,0,0,0-7-2.49c-2.32-.57-4.54-1.54-6.8-2.33a8.09,8.09,0,0,0-2.79-.65c-4.86.1-9.52-1.14-14.18-2.26a64.4,64.4,0,0,0-8.45-1.7c-4-.41-7-2.6-9.85-5.09A7.86,7.86,0,0,1,23,276.27c-.33-2.23-1-4.36-1.51-6.54a36.7,36.7,0,0,1,0-15.24,32,32,0,0,1,3.9-9.24c2.24-4,4.38-8.22,7.29-11.81,2.4-3,4.74-6,7.11-9A33.51,33.51,0,0,1,47.25,218a54.64,54.64,0,0,0,7.18-5.58c1.83-1.78,4.26-2.8,6.58-3.9a12.89,12.89,0,0,0,1.33-.55c4.7-2.93,10-4,15.25-5.47,8.87-2.55,18-3.77,27-5.37,8.62-1.54,17.35-1.47,26.07-1.1a40.14,40.14,0,0,1,10.07,2.06,167.62,167.62,0,0,1,25.52,9.73c3.81,1.89,8,2.9,11.87,4.55q5.52,2.34,10.86,5.08a21.3,21.3,0,0,1,3.77,2.94,3.15,3.15,0,0,0,2.86.71A60.77,60.77,0,0,0,207,217.39,157,157,0,0,1,224.13,212c9.2-2.43,18.35-5.06,27.63-7.17,5.54-1.26,11.17-2.11,16.64-3.61,10.72-2.93,21.68-4,32.69-4.83,2-.14,4-.09,5.84-1a4.65,4.65,0,0,1,1.88-.32c5.44-.23,10.77-1.43,16.2-1.73a25.94,25.94,0,0,1,3.59-.09c3.43.28,6.86.41,10.31.35a10.89,10.89,0,0,1,4,.71,14.31,14.31,0,0,0,6.14.8c6.83-.62,13.57.32,20.31,1.15a11.78,11.78,0,0,0,2.15.21c6-.39,11.71,1.35,17.52,2.43,10.47,1.95,20.58,5.33,31,7.69a96.7,96.7,0,0,1,10.74,3.4c5.81,2.06,11.86,3.33,17.62,5.5a95.57,95.57,0,0,0,10.5,3.36c2,.51,3.74.33,5.21-1.3a9.72,9.72,0,0,1,2.7-2c9-4.85,18.28-9.19,27.62-13.38a69.75,69.75,0,0,1,13.57-4.69,85.82,85.82,0,0,0,9.7-2.7,38.52,38.52,0,0,1,17-1.75c5.09.55,10.22.58,15.29,1.37,6.16,1,12.28,2.08,18.33,3.66,5.88,1.53,11.79,3,17.5,5a95.45,95.45,0,0,1,20.08,10.6,10.79,10.79,0,0,1,1.67,1.36c5.85,5.9,11.64,11.88,16.34,18.77,2,2.9,3.25,6.22,4.8,9.37.42.86.75,1.76,1.12,2.64a.93.93,0,0,0,.34.93,4.64,4.64,0,0,0,1.16,2.43c.42,1.42.82,2.85,1.28,4.25.57,1.72.33,3.59,1,5.29a20.89,20.89,0,0,0,0,5.41l-.78,5.22a.91.91,0,0,0-.23,1,12.59,12.59,0,0,0-.9,2.68,17,17,0,0,1-2.39,6.88,2.12,2.12,0,0,0-1.13,1.09,2.82,2.82,0,0,0-1.64,1.25h-.22l-.1.2a1.19,1.19,0,0,0-1.1.77h-.23l-.1.21L620,285.39a1,1,0,0,0-1,.18,86.29,86.29,0,0,1-3.84.56c-2.34.08-4.46,1.07-6.69,1.63a1,1,0,0,0-1,.23,37.1,37.1,0,0,0-6.21,1.22,2.77,2.77,0,0,0-2,.29,8.14,8.14,0,0,0-3.34.15,1.51,1.51,0,0,0-1.46.33,33.47,33.47,0,0,0-7.65,2.57,1,1,0,0,0-1,.25.8.8,0,0,0-.94.22,2.83,2.83,0,0,0-1.94.66,1.51,1.51,0,0,0-1.28.59,7.89,7.89,0,0,0-3,1.29,1.37,1.37,0,0,0-1.15.66,1.62,1.62,0,0,0-1.25.73,1.38,1.38,0,0,0-1.14.71h-.21l-.09.19a1.2,1.2,0,0,0-1.1.79l-.34.24a4.08,4.08,0,0,0-2,1.69.8.8,0,0,0-.81.65,1.8,1.8,0,0,0-1.28,1.32l-.25.32c-2.44,2.54-4,5.71-6.13,8.48a3.31,3.31,0,0,0-.52,1.07,70,70,0,0,1-4.73,11,7.63,7.63,0,0,0-1,3.72l5.08-7.27.22-.08v-.24a4.64,4.64,0,0,0,1.74-2.11.61.61,0,0,0,.57-.57,3,3,0,0,0,1.6-1.27l.35-.22A1.16,1.16,0,0,0,567.2,314.55Zm16.5-25.44a44.28,44.28,0,0,1-5.49-3,8.92,8.92,0,0,1-4-5.74,12.34,12.34,0,0,1,.11-6.39,44.9,44.9,0,0,1,2.9-7.35c2.45-5,4.11-10.08,2.81-15.72a5.72,5.72,0,0,1-.06-1.2,37.18,37.18,0,0,0-2.31-13.6,53.25,53.25,0,0,1-3.24-13.47,9,9,0,0,0-1.21-3.35c-1.69-3-3.57-5.87-5.45-8.74a10.71,10.71,0,0,0-6-4.52c-1.14-.36-2.28-.74-3.44-1-5.71-1.5-11.49-2.49-17.2-.26a58.92,58.92,0,0,0-8.34,4.21c-5.79,3.41-11.7,6.56-17.8,9.38a73.37,73.37,0,0,1-16.48,5c-3.3.67-6.67.83-10,1.41a53.61,53.61,0,0,1-19.32-.27c-1.57-.29-3.17-.43-4.75-.67a3.92,3.92,0,0,0-3.31.95,53.71,53.71,0,0,1-9.29,5.93,18.28,18.28,0,0,1-11.14,1.93c-6.34-.79-12-3.39-17.46-6.4-6.92-3.83-13.54-8.17-20.5-11.94-5.69-3.08-11.27-6.38-17.58-8.12a27.65,27.65,0,0,1-4.47-1.72c-3.33-1.58-7-1.64-10.49-2.4a4.48,4.48,0,0,0-3,.4c-.24.11-.63-.05-.94-.13a54.55,54.55,0,0,1-6.08-1.37,3.91,3.91,0,0,0-2.11-.2c-4.38.8-8.77.12-13.11-.29-4-.38-8.06-1.19-12.12-1.34a75.72,75.72,0,0,0-15.95,1.58c-1.73.31-3.49.75-5.23.3a8.77,8.77,0,0,0-3.79,0c-1.58.27-3.14.66-4.72.84a139.94,139.94,0,0,0-20.25,3.79c-2.49.67-4.69,2.09-7.17,2.7-7.11,1.77-13.57,5.23-20.24,8.07-8.81,3.76-17.19,8.5-26,12.23-6.12,2.57-12.24,5.1-19,5.32a16.2,16.2,0,0,1-11-3.29c-1.83-1.43-3.67-2.84-5.48-4.28a5.05,5.05,0,0,0-3.3-1.07c-3.76-.05-7.49.75-11.25.31a120.75,120.75,0,0,0-12.93-.64c-5.07,0-10-1.27-15-1.79a25.47,25.47,0,0,1-4.16-1.11c-7.39-2.1-13.91-6-20.49-9.82-4.23-2.43-8.56-4.66-12.84-7a9.07,9.07,0,0,0-4.36-1.06,48.35,48.35,0,0,0-15.83,2.2,10.08,10.08,0,0,0-5.6,3.8c-3.53,5.16-6.84,10.49-8.41,16.6-1.8,7-4.13,13.9-5,21.2-.91,7.48-.15,14.47,3.07,21.22A36.23,36.23,0,0,1,80,275a10.54,10.54,0,0,1-4.67,12.23c-1.32.84-2.72,1.58-4.36,2.52a34.65,34.65,0,0,1,5,1.57c2.86,1.41,5.73,2.84,8.6,4.2C90.3,298.27,94.16,303,98,307.6a37.82,37.82,0,0,1,7.49,15.68,36.2,36.2,0,0,0,2.05,6.89c3,6.39,4.15,13.25,5.28,20.11,1,5.8-.35,10.79-5.51,14.28-2.05,1.39-4.13,2.76-6.08,4.28A92.53,92.53,0,0,1,84,380c-5.08,2.4-9.19,6.28-13.37,10-3.75,3.38-7,6.94-8.77,11.77a11.43,11.43,0,0,0-.88,6.08c.6,3.17,2.09,5.76,5.47,7,4.35,1.57,8.66,3.29,12.89,5.18a150.89,150.89,0,0,0,15.16,6,59.87,59.87,0,0,0,17.27,2.56c14.64.29,29.27-.5,43.91-.44,1.52,0,3-.16,4.54-.23,2.55-.11,5.08-.74,7.65-.42a17.41,17.41,0,0,0,5.49-.31,31.76,31.76,0,0,1,5-.47c6.07-.21,12.15-.36,18.22-.75,6.94-.45,13.87-1.42,20.83-1.1,6.35.3,12.36-1.06,18.35-3a78.62,78.62,0,0,1,9.95-2.69c3-.54,6-1,9-1.56a67.49,67.49,0,0,1,14.78-1.28c4.25.12,8.47.49,12.67,1,6.35.73,12.75,1.19,18.95,2.89,3,.82,5.93,1.92,8.92,2.77,5,1.44,9.79,3.38,13.52,7.25a1.63,1.63,0,0,0,2.49.28c1-.79,2.09-1.47,3.12-2.23a37.94,37.94,0,0,1,7.14-4.38c7.2-3.17,14.84-4.95,22.46-6.74a52.35,52.35,0,0,1,9.07-.89,135.86,135.86,0,0,1,17.26-.18c4.16.29,8.25,1,12.37,1.5,5,.59,9.88,1.91,14.79,3,3.52.76,7,1.45,10.61,1.88,5.4.65,10.84.83,16.25,1.33,9.88.91,19.76,1.67,29.68,2,4.55.17,9.12-.08,13.63.86a12.42,12.42,0,0,0,3.11.1,34.73,34.73,0,0,1,5.27.16q5.49.56,11,1c16.36,1.16,32.77,1.28,49.16,1.95a8.71,8.71,0,0,0,2.85-.24,45.58,45.58,0,0,0,8.29-3.11,47.31,47.31,0,0,1,7.26-3.13,67.83,67.83,0,0,0,13.19-5.66,20.19,20.19,0,0,0,6.11-5.31,10.37,10.37,0,0,0,1.76-9.5,27.19,27.19,0,0,0-7.77-13,26.51,26.51,0,0,1-2.87-3.22,21.38,21.38,0,0,0-4.47-4.31,49.85,49.85,0,0,0-8.29-4.8,38.43,38.43,0,0,1-6.65-3.8c-4.92-3.57-9.55-7.51-14.16-11.46-2.43-2.08-4-4.61-3.22-8a4.58,4.58,0,0,0,0-1.2,35.2,35.2,0,0,1,1.62-11.82q1.17-4,2.19-8.1c1.74-6.9,3.44-13.81,6.84-20.15,2.47-4.61,5.2-9,9.45-12.24a71.34,71.34,0,0,1,18.5-10.49A4.79,4.79,0,0,0,583.7,289.11ZM84,205.5c-2.22.28-3.78.85-5.4,1a39.53,39.53,0,0,0-12.11,3.53C61,212.69,56,216.22,51,219.61a31,31,0,0,0-8.77,8.72c-2.49,3.81-5.21,7.45-7.65,11.28A19.55,19.55,0,0,0,32,244.46c-1.21,4.22-3,8.24-3.93,12.55-.66,3.19-1.38,6.39-.6,9.68a17.32,17.32,0,0,1,.48,3.06,5.22,5.22,0,0,0,1.07,2.85c3.48,4.91,8.48,7,14.63,5.43a27.24,27.24,0,0,0,17.73-13.21c2.07-3.65,3.44-7.72,5-11.65,2.77-7.05,3.38-14.57,4.36-22a36.61,36.61,0,0,1,8.14-19.09C80.56,210.11,81.7,207.75,84,205.5Zm542.18,56.83a29.32,29.32,0,0,0-1.52-11.56,52,52,0,0,0-3.09-8.52,107.63,107.63,0,0,0-9.09-14.06c-3-4.1-6.19-7.94-10.56-10.64-3.19-2-6.46-3.83-9.56-5.94a38.32,38.32,0,0,0-11.37-4.9c-3.15-.89-6.32-1.66-9.49-2.46-.44-.11-1-.25-1.27.29s.16.76.45,1c2.11,1.87,3.62,4.24,5.42,6.37a33.46,33.46,0,0,1,6.83,14.34c.74,3.17.89,6.47,1.44,9.68,1.12,6.51,2.26,13,4.66,19.23a45.65,45.65,0,0,0,8.13,14.24A15.16,15.16,0,0,0,602,273.6a37.91,37.91,0,0,0,7.16,2.7,16.47,16.47,0,0,0,5.9.59c4.15-.57,7.14-3,9.75-6a5.44,5.44,0,0,0,1.35-3.75C626.14,265.52,626.17,263.93,626.17,262.33ZM81,376.62c.38.33.71.07,1.08-.07,4.21-1.63,7.75-4.42,11.63-6.61,2.47-1.39,4.12-3.77,6.35-5.45a18.71,18.71,0,0,0,4.61-5.14,11,11,0,0,0,1.09-9.65,23.1,23.1,0,0,0-4.57-8.33c-2.27-2.52-4.68-4.84-8-6-1.66-.58-3.34-1.1-5-1.55-10-2.64-20.06-5.29-30.12-7.85-5.5-1.4-11-2.79-16.17-5.17a52.2,52.2,0,0,0-17.79-4.49c-.71-.06-1.41-.26-2.13-.32s-1.53,0-1.89.71.2,1.23.63,1.69c1,1.06,2,2,3,3.13,3.54,4.11,7.27,8.08,9.06,13.41a8,8,0,0,0,4.33,4.6,30.12,30.12,0,0,0,7.5,2.4c3.62.72,7.29.77,10.94,1.14,4.78.48,9.57.49,14.34.54,3.34,0,6.69,0,10,.18a54.35,54.35,0,0,1,10.89,1.48,11,11,0,0,1,5.28,3.13,4.5,4.5,0,0,1,1.2,5.05c-.41,1-.73,2.11-1.16,3.14a39.68,39.68,0,0,1-8,11.86,89.4,89.4,0,0,1-6.74,7.14C81.09,375.85,80.81,376.14,81,376.62Zm487.91-3.18c-.34-.48-.55-.79-.78-1.08-4.28-5.58-8.46-11.22-11.16-17.81a6.42,6.42,0,0,1,1.51-7.62,11,11,0,0,1,5.54-2.67,95,95,0,0,1,10.46-1.06c4.3-.39,8.58-.67,12.89-.78,4.7-.13,9.43,0,14.08-1a21.17,21.17,0,0,1,5.42-.86,21.82,21.82,0,0,0,8.9-1.43c2.56-1,4.55-2.46,5.41-5,1.83-5.39,5.38-9.53,9.31-13.43a30.84,30.84,0,0,0,3-3.39c.78-1,.31-1.82-1-1.91a5.6,5.6,0,0,0-1.2.07c-5,.76-10.13,1.34-14.87,3.45-1,.46-2,.94-3.07,1.36-5.71,2.34-11.75,3.56-17.69,5.14-11,2.93-22.06,5.29-32.85,8.78a18.59,18.59,0,0,0-11.12,9.25c-.81,1.55-1.24,3.29-2.06,4.84A10.84,10.84,0,0,0,552,361.65c1.39,1.32,2.92,2.48,4.35,3.76a46.64,46.64,0,0,0,9.8,6.79C567,372.62,567.62,373.37,568.89,373.44Zm15.19,11.19a1.9,1.9,0,0,0,1,1.87c2.34,1.46,4,3.61,6,5.46a13.7,13.7,0,0,1,3,4.27c.77,1.66,1.57,3.31,2.36,5a6.73,6.73,0,0,1,.74,4.18,27.26,27.26,0,0,1-1.39,5.56,11.19,11.19,0,0,1-4.52,5.43A100.18,100.18,0,0,1,575.43,424a107.75,107.75,0,0,0-11.58,5.19c-.35.18-.83.31-.79.78s.6.67,1.07.71c1.66.16,3.33.41,5,.43,4.39.07,8.79,0,13.18,0a34.6,34.6,0,0,0,4.07-.11,75.29,75.29,0,0,1,8.8-.78,47,47,0,0,0,6.16-.75c4.38-.59,8.48-2.21,12.57-3.78a20.31,20.31,0,0,0,7.07-4.4,8.11,8.11,0,0,0,2.37-5.57c.22-3.36-1.6-5.76-3.58-8.08-4.85-5.66-11-9.67-17.37-13.35-4.07-2.36-8.2-4.62-12.34-6.87A31.86,31.86,0,0,0,584.08,384.63ZM67.62,387.17c-.69-.5-1.19.12-1.75.32-3,1-5.46,3-8.2,4.43-4.08,2.17-8.12,4.41-12,6.88a55.32,55.32,0,0,0-12.08,10.85c-4,4.66-3.29,11.61,2.48,14.7a47.7,47.7,0,0,0,13.49,4.81c4.38.85,8.89.78,13.34,1,5.1.26,10.23.14,15.35.08a67.09,67.09,0,0,0,10.38-1.11c-1.16-.5-1.92-.91-2.73-1.16A130.57,130.57,0,0,1,67,419.82c-3-1.52-6.19-2.94-7.87-6.31a28.93,28.93,0,0,1-1.76-4.68,12.22,12.22,0,0,1,.45-8.66c2-4.55,4.7-8.7,8.85-11.71C67.07,388.14,67.59,387.83,67.62,387.17ZM617,430.84a3.65,3.65,0,0,0-2.26.36,65.84,65.84,0,0,1-10.5,2.34c-3.86.53-7.79.6-11.7.77-7.43.32-14.86.21-22.29.22a41.56,41.56,0,0,1-8.06-1,25.92,25.92,0,0,0-11.87.1,114.69,114.69,0,0,1-27.17,3.72c-3.44.09-6.87,0-10.31.05-.45,0-1.15-.29-1.28.66,3.07.57,6.09,1.38,9.17,1.67,7.07.66,14.16,1.08,21.25,1.58,4.53.32,9.09.39,13.58,1.26a63.73,63.73,0,0,0,14.06,1c2-.06,4-.08,6,0,5.24.2,10.33-.78,15.41-1.84,4.24-.88,8.2-2.67,12.38-3.75s8.12-3.26,12-5.37A2.59,2.59,0,0,0,617,430.84ZM540.42,200.72c-.23-.21-.33-.38-.44-.38-4.06-.1-8.12.3-12.19.22a58.39,58.39,0,0,0-6.66.71,67.47,67.47,0,0,0-20.39,5c-4.19,1.81-8.67,2.78-12.93,4.39A155.42,155.42,0,0,0,473,217.36c-1.5.76-3.05,1.39-4.58,2.09-.38.17-.74.43-.67.88s.51.57.92.57c1.84,0,3.68,0,5.52,0a114.52,114.52,0,0,0,17.45-.91c1.74-.26,3.45-.7,5.19-.88a51.17,51.17,0,0,0,17.74-5.5c6.44-3.21,12.86-6.45,19.29-9.66C536,202.84,538.19,201.8,540.42,200.72ZM187.74,222.43c.08-.64-.34-.78-.67-1a105.73,105.73,0,0,0-16.08-8c-10-3.68-19.92-7.83-30.44-10.06-5-1.06-9.95-2.32-15.12-2.25a51.33,51.33,0,0,1-7.42-.29,11.44,11.44,0,0,0-4.51.13c.42.86,1,.86,1.52,1a48.76,48.76,0,0,1,8.38,3.54c5.76,2.94,11.4,6.12,17.09,9.21a24.14,24.14,0,0,0,3.73,1.63,120.14,120.14,0,0,0,13.22,3.35,116.63,116.63,0,0,0,26.63,2.7C185.31,222.41,186.53,222.43,187.74,222.43ZM33.09,429.91c0,.4.29.58.5.82,1.42,1.57,3.36,2.43,5.08,3.53,4.63,2.94,9.36,5.8,14.81,7,4,.87,8.12.75,12.11,1.54a65.39,65.39,0,0,0,11.92.9,86,86,0,0,0,10.72-1c8.49-.94,17-1.64,25.51-2.47,3.08-.3,6.16-.69,9.24-1-6-.78-11.71-2.72-17.54-4-4.09-.92-8-1.71-12.26-1.24-4.52.5-9.08.62-13.62.81a119.8,119.8,0,0,1-13.18.11c-4.22-.29-8.43-.67-12.66-.88-6.84-.34-13.63-1.08-19.94-4.11C33.59,429.81,33.32,429.9,33.09,429.91ZM209.51,229.56c4.29-.18,8.14-1.3,12-2.23a43.73,43.73,0,0,0,10.72-4.08c4.15-2.24,8.35-4.39,12.57-6.48,2.58-1.27,5-2.92,7.7-3.9,6.76-2.45,13.35-5.37,20.21-7.56.69-.22,1.93-.28,1.62-1.28-.26-.82-1.41-.44-2.14-.26-3.57.85-7.14,1.71-10.68,2.67-7.71,2.1-15.43,4.15-23.18,6.06-5.19,1.28-10.49,2.16-15.53,4-2.84,1.06-5.7,2.12-8.61,3-4.59,1.34-9,3.25-13.87,3.71l-.24,0c-.55.12-1.21.21-1.34.83s.58.9,1,1.14c2,1.1,4.1,2.15,6.16,3.2C207.15,229.06,208.3,229.86,209.51,229.56ZM384.76,202a1.46,1.46,0,0,0,1.21,1.11c1.88.68,3.77,1.3,5.64,2,4,1.49,7.63,3.66,11.43,5.54,2.51,1.24,5.31,1.89,7.58,3.55a56.83,56.83,0,0,0,8.88,5.16,123.31,123.31,0,0,0,22.32,7.86c5.59,1.49,10-.69,14.13-3.88.89-.69.76-1.28-.28-1.74a6.37,6.37,0,0,0-.92-.26c-2.62-.71-5.28-1.28-7.84-2.16-8.31-2.85-16.77-5.22-25.18-7.74-4.51-1.35-9.16-2.21-13.68-3.48-5.38-1.52-10.73-3.14-16.16-4.46C389.59,202.95,387.36,202.05,384.76,202ZM559.53,330.6a3,3,0,0,0,2.44,0c3.39-.9,6.69-2.11,10.12-2.92,8.39-2,16.21-5.2,23.13-10.54,3.32-2.56,4.47-5.88,4.92-9.68.13-1.1.7-2.66-.48-3.31s-2.17.56-3.11,1.28a29.7,29.7,0,0,1-13.2,5.86,26.61,26.61,0,0,0-8.44,2.55C567.93,317.62,563.11,323.42,559.53,330.6ZM54.45,304.5c0,1.61,0,3,0,4.3a10.77,10.77,0,0,0,4.87,9.12c.91.64,1.81,1.31,2.72,2a52.56,52.56,0,0,0,17.8,8c4.26,1,8.55,1.93,12.7,3.4.63.22,1.28.76,2,.25.24-.72-.24-1.22-.58-1.73-1.41-2.13-2.76-4.3-4.3-6.34a27.82,27.82,0,0,0-16.91-10.9,37.66,37.66,0,0,1-14.91-6.21A9.13,9.13,0,0,0,54.45,304.5Zm14.81-46.45c-1,1.88-1.36,3.61-2.07,5.21s-1.94,2.92-2.74,4.48a24.15,24.15,0,0,1-25.11,12.92,7.17,7.17,0,0,0-4.36.64,8.1,8.1,0,0,0,2.54,1c7.3,2,14.85,2.85,22.23,4.5a12.32,12.32,0,0,0,9.59-1.94,9.13,9.13,0,0,0,4.33-7.35,23.11,23.11,0,0,0-2.06-11.87,15.12,15.12,0,0,1-1.5-5A4.82,4.82,0,0,0,69.26,258.05Zm203.21,163c-3.26.15-6.53-.05-9.8.42-3.94.57-7.93.7-11.9,1.08a23.12,23.12,0,0,0-3,.63.7.7,0,0,0-.6.65c0,.52.49.58.89.56,1.27-.05,2.5-.39,3.8-.4,4.56,0,9.08.65,13.61.8a149,149,0,0,1,20.93,2c4.72.83,9.47,1.48,13.83,3.63q5.37,2.64,10.68,5.42a13.43,13.43,0,0,1,5.12,4.23c.63.92,1.25.76,2,.07,1.79-1.71,3.13-3.83,5.06-5.42.69-.57.2-1.21-.47-1.48-2.91-1.14-5.49-2.93-8.32-4.21a62.19,62.19,0,0,0-15-4.91c-4.4-.76-8.73-2-13.15-2.47A82.28,82.28,0,0,0,272.47,421.06ZM584.54,258a31.66,31.66,0,0,1-2,6.63,22.17,22.17,0,0,0-1,14.79,5.27,5.27,0,0,0,1.35,2.76c3.4,3.08,7.36,4.5,11.9,3.58,2.34-.48,4.67-1,7-1.49,5-1,10.1-1.57,15-2.87.52-.13,1.13-.1,1.21-.84-.34-.48-.83-.44-1.31-.45-2,0-4-.2-6-.1-6.94.33-12.43-2.78-17-7.55a33.73,33.73,0,0,1-8.4-13.79C585.37,258.38,585.24,258.09,584.54,258Zm-180,164.72c-.18-.73-.81-.59-1.32-.7-2.44-.51-5-.2-7.37-.65a58.69,58.69,0,0,0-10.24-.81c-2.71,0-5.43-.14-8.13-.18a47,47,0,0,0-7.85.6c-6.45,1-12.95,1.74-19.27,3.49s-12.29,4.47-18.27,7.11a4.47,4.47,0,0,0-.81.5c-3,2.17-3,2.39,0,4.4a7.49,7.49,0,0,1,3.42,3.86c.13.42-.07,1.07.57,1.17s.76-.44,1-.85c.41-.68.87-1.34,1.27-2,3-5,7.74-7.7,12.94-9.28a86.17,86.17,0,0,1,13.68-3.33c4.26-.56,8.49-1.34,12.79-1.62,1-.07,2-.33,3.08-.36,3-.1,6.08.13,9.06-.24a79,79,0,0,1,14.31-.82C403.81,423,404.23,423.16,404.52,422.73Zm-71.7,21.9a6.71,6.71,0,0,0-.79-3.32c-1-2.13-3-3.27-4.7-4.67a1.6,1.6,0,0,0-2,.23,14.73,14.73,0,0,0-4.16,4.25,5.59,5.59,0,0,0-.39,5.69c1.69,3.17,3.08,6.48,4.62,9.72.45,1,.74,2.48,2,2.42s1.44-1.57,1.79-2.58c1.11-3.24,2-6.55,3.38-9.71A4.72,4.72,0,0,0,332.81,444.64Z" transform="translate(-7.63 -192.79)"/><path class="cls-2" d="M84,205.5c-2.3,2.25-3.44,4.61-5.11,6.61a36.61,36.61,0,0,0-8.14,19.09c-1,7.41-1.58,14.92-4.36,22-1.55,3.93-2.91,8-5,11.65A27.24,27.24,0,0,1,43.68,278c-6.15,1.57-11.15-.53-14.63-5.43A5.22,5.22,0,0,1,28,269.75a17.32,17.32,0,0,0-.48-3.06c-.77-3.29-.06-6.49.6-9.68.89-4.31,2.72-8.33,3.93-12.55a19.55,19.55,0,0,1,2.56-4.85c2.44-3.83,5.16-7.47,7.65-11.28A31,31,0,0,1,51,219.61c5-3.39,10-6.92,15.48-9.53a39.53,39.53,0,0,1,12.11-3.53C80.22,206.35,81.78,205.78,84,205.5Z" transform="translate(-7.63 -192.79)"/><path class="cls-2" d="M626.17,262.33c0,1.6,0,3.2,0,4.8a5.44,5.44,0,0,1-1.35,3.75c-2.61,3-5.6,5.44-9.75,6a16.47,16.47,0,0,1-5.9-.59,37.91,37.91,0,0,1-7.16-2.7,15.16,15.16,0,0,1-4.87-4.19A45.65,45.65,0,0,1,589,255.17c-2.4-6.25-3.54-12.72-4.66-19.23-.55-3.22-.71-6.51-1.44-9.68a33.46,33.46,0,0,0-6.83-14.34c-1.8-2.13-3.31-4.5-5.42-6.37-.28-.25-.67-.56-.45-1s.83-.41,1.27-.29c3.17.8,6.35,1.58,9.49,2.46a38.32,38.32,0,0,1,11.37,4.9c3.1,2.1,6.37,4,9.56,5.94,4.37,2.7,7.6,6.54,10.56,10.64a107.63,107.63,0,0,1,9.09,14.06,52,52,0,0,1,3.09,8.52A29.32,29.32,0,0,1,626.17,262.33Z" transform="translate(-7.63 -192.79)"/><path class="cls-3" d="M81,376.62c-.17-.47.12-.77.41-1a89.4,89.4,0,0,0,6.74-7.14,39.68,39.68,0,0,0,8-11.86c.43-1,.74-2.11,1.16-3.14a4.5,4.5,0,0,0-1.2-5.05,11,11,0,0,0-5.28-3.13,54.35,54.35,0,0,0-10.89-1.48c-3.34-.18-6.69-.14-10-.18-4.77-.06-9.57-.06-14.34-.54-3.65-.37-7.32-.41-10.94-1.14a30.12,30.12,0,0,1-7.5-2.4,8,8,0,0,1-4.33-4.6c-1.79-5.32-5.51-9.3-9.06-13.41-.94-1.09-2-2.07-3-3.13-.42-.46-1-1-.63-1.69s1.16-.77,1.89-.71,1.41.26,2.13.32A52.2,52.2,0,0,1,41.9,320.8c5.18,2.38,10.67,3.77,16.17,5.17,10.05,2.56,20.08,5.21,30.12,7.85,1.7.45,3.38,1,5,1.55,3.27,1.15,5.68,3.46,8,6a23.1,23.1,0,0,1,4.57,8.33,11,11,0,0,1-1.09,9.65,18.71,18.71,0,0,1-4.61,5.14c-2.23,1.68-3.88,4.06-6.35,5.45-3.89,2.19-7.43,5-11.63,6.61C81.69,376.69,81.36,376.95,81,376.62Z" transform="translate(-7.63 -192.79)"/><path class="cls-3" d="M568.89,373.44c-1.26-.07-1.92-.82-2.74-1.24a46.64,46.64,0,0,1-9.8-6.79c-1.43-1.28-3-2.44-4.35-3.76a10.84,10.84,0,0,1-2.34-13.34c.81-1.55,1.25-3.29,2.06-4.84a18.59,18.59,0,0,1,11.12-9.25c10.79-3.49,21.9-5.85,32.85-8.78,5.94-1.59,12-2.8,17.69-5.14,1-.42,2-.91,3.07-1.36,4.73-2.11,9.82-2.69,14.87-3.45a5.6,5.6,0,0,1,1.2-.07c1.32.09,1.78.87,1,1.91a30.84,30.84,0,0,1-3,3.39c-3.94,3.91-7.48,8-9.31,13.43-.87,2.56-2.85,4-5.41,5a21.82,21.82,0,0,1-8.9,1.43,21.17,21.17,0,0,0-5.42.86c-4.65,1-9.38.84-14.08,1-4.31.12-8.6.4-12.89.78A95,95,0,0,0,564,344.26a11,11,0,0,0-5.54,2.67,6.42,6.42,0,0,0-1.51,7.62c2.7,6.59,6.88,12.22,11.16,17.81C568.34,372.65,568.54,373,568.89,373.44Z" transform="translate(-7.63 -192.79)"/><path class="cls-2" d="M584.08,384.63a31.86,31.86,0,0,1,6,2.82c4.14,2.25,8.27,4.51,12.34,6.87,6.37,3.69,12.52,7.69,17.37,13.35,2,2.32,3.81,4.72,3.58,8.08a8.11,8.11,0,0,1-2.37,5.57,20.31,20.31,0,0,1-7.07,4.4c-4.09,1.57-8.18,3.19-12.57,3.78a47,47,0,0,1-6.16.75,75.29,75.29,0,0,0-8.8.78,34.6,34.6,0,0,1-4.07.11c-4.39,0-8.79,0-13.18,0-1.67,0-3.33-.27-5-.43-.47,0-1-.11-1.07-.71s.44-.6.79-.78A107.75,107.75,0,0,1,575.43,424a100.18,100.18,0,0,0,15.91-7.63,11.19,11.19,0,0,0,4.52-5.43,27.26,27.26,0,0,0,1.39-5.56,6.73,6.73,0,0,0-.74-4.18c-.79-1.66-1.59-3.31-2.36-5a13.7,13.7,0,0,0-3-4.27c-2-1.85-3.66-4-6-5.46A1.9,1.9,0,0,1,584.08,384.63Z" transform="translate(-7.63 -192.79)"/><path class="cls-2" d="M67.62,387.17c0,.66-.55,1-1,1.29-4.15,3-6.81,7.16-8.85,11.71a12.22,12.22,0,0,0-.45,8.66,28.93,28.93,0,0,0,1.76,4.68c1.68,3.37,4.84,4.79,7.87,6.31A130.57,130.57,0,0,0,85.84,428c.81.26,1.57.67,2.73,1.16a67.09,67.09,0,0,1-10.38,1.11c-5.12.06-10.24.17-15.35-.08-4.45-.22-9-.15-13.34-1A47.7,47.7,0,0,1,36,424.34c-5.76-3.1-6.52-10-2.48-14.7a55.32,55.32,0,0,1,12.08-10.85c3.92-2.47,8-4.7,12-6.88,2.74-1.46,5.22-3.41,8.2-4.43C66.43,387.29,66.93,386.67,67.62,387.17Z" transform="translate(-7.63 -192.79)"/><path class="cls-3" d="M617,430.84a2.59,2.59,0,0,1-1.63,1.86c-3.85,2.11-7.65,4.26-12,5.37s-8.14,2.86-12.38,3.75c-5.08,1.06-10.17,2-15.41,1.84-2-.08-4-.06-6,0a63.73,63.73,0,0,1-14.06-1c-4.49-.87-9-.94-13.58-1.26-7.08-.5-14.18-.92-21.25-1.58-3.07-.29-6.1-1.1-9.17-1.67.13-.95.82-.65,1.28-.66,3.44,0,6.88,0,10.31-.05a114.69,114.69,0,0,0,27.17-3.72,25.92,25.92,0,0,1,11.87-.1,41.56,41.56,0,0,0,8.06,1c7.43,0,14.86.1,22.29-.22,3.9-.17,7.83-.24,11.7-.77a65.84,65.84,0,0,0,10.5-2.34A3.65,3.65,0,0,1,617,430.84Z" transform="translate(-7.63 -192.79)"/><path class="cls-3" d="M540.42,200.72c-2.23,1.08-4.42,2.12-6.58,3.2-6.43,3.21-12.86,6.45-19.29,9.66a51.17,51.17,0,0,1-17.74,5.5c-1.74.18-3.46.62-5.19.88a114.52,114.52,0,0,1-17.45.91c-1.84,0-3.68,0-5.52,0-.41,0-.85-.09-.92-.57s.29-.7.67-.88c1.53-.69,3.08-1.33,4.58-2.09a155.42,155.42,0,0,1,14.85-6.69c4.26-1.62,8.73-2.59,12.93-4.39a67.47,67.47,0,0,1,20.39-5,58.39,58.39,0,0,1,6.66-.71c4.07.08,8.13-.32,12.19-.22C540.09,200.34,540.19,200.51,540.42,200.72Z" transform="translate(-7.63 -192.79)"/><path class="cls-3" d="M187.74,222.43c-1.21,0-2.44,0-3.66,0a116.63,116.63,0,0,1-26.63-2.7,120.14,120.14,0,0,1-13.22-3.35,24.14,24.14,0,0,1-3.73-1.63c-5.69-3.09-11.33-6.26-17.09-9.21A48.76,48.76,0,0,0,115,202c-.49-.14-1.1-.14-1.52-1a11.44,11.44,0,0,1,4.51-.13,51.33,51.33,0,0,0,7.42.29c5.17-.07,10.13,1.19,15.12,2.25,10.52,2.24,20.4,6.39,30.44,10.06a105.73,105.73,0,0,1,16.08,8C187.4,221.65,187.83,221.79,187.74,222.43Z" transform="translate(-7.63 -192.79)"/><path class="cls-3" d="M33.09,429.91c.23,0,.5-.11.68,0,6.31,3,13.1,3.76,19.94,4.11,4.23.21,8.44.59,12.66.88a119.8,119.8,0,0,0,13.18-.11c4.55-.19,9.11-.31,13.62-.81,4.23-.47,8.18.32,12.26,1.24,5.83,1.31,11.53,3.25,17.54,4-3.08.35-6.16.74-9.24,1-8.5.83-17,1.53-25.51,2.47a86,86,0,0,1-10.72,1,65.39,65.39,0,0,1-11.92-.9c-4-.79-8.12-.67-12.11-1.54-5.46-1.19-10.19-4-14.81-7-1.72-1.1-3.66-2-5.08-3.53C33.38,430.49,33.12,430.31,33.09,429.91Z" transform="translate(-7.63 -192.79)"/><path class="cls-4" d="M209.51,229.56c-1.21.3-2.37-.49-3.57-1.11-2.06-1.05-4.12-2.11-6.16-3.2-.45-.24-1.18-.44-1-1.14s.79-.71,1.34-.83l.24,0c4.83-.46,9.27-2.37,13.87-3.71,2.91-.85,5.77-1.91,8.61-3,5-1.88,10.34-2.77,15.53-4,7.76-1.91,15.48-4,23.18-6.06,3.54-1,7.11-1.82,10.68-2.67.73-.18,1.89-.56,2.14.26.31,1-.93,1.06-1.62,1.28-6.86,2.19-13.44,5.11-20.21,7.56-2.72,1-5.12,2.63-7.7,3.9-4.23,2.09-8.43,4.23-12.57,6.48a43.73,43.73,0,0,1-10.72,4.08C217.65,228.25,213.8,229.38,209.51,229.56Z" transform="translate(-7.63 -192.79)"/><path class="cls-4" d="M384.76,202c2.6,0,4.83.93,7.13,1.48,5.43,1.32,10.78,2.94,16.16,4.46,4.52,1.28,9.17,2.13,13.68,3.48,8.41,2.52,16.87,4.89,25.18,7.74,2.56.88,5.22,1.45,7.84,2.16a6.37,6.37,0,0,1,.92.26c1,.46,1.17,1.06.28,1.74-4.17,3.2-8.54,5.37-14.13,3.88a123.31,123.31,0,0,1-22.32-7.86,56.83,56.83,0,0,1-8.88-5.16c-2.27-1.66-5.08-2.31-7.58-3.55-3.79-1.88-7.45-4-11.43-5.54-1.87-.7-3.76-1.32-5.64-2A1.46,1.46,0,0,1,384.76,202Z" transform="translate(-7.63 -192.79)"/><path class="cls-2" d="M559.53,330.6c3.58-7.18,8.4-13,15.37-16.78a26.61,26.61,0,0,1,8.44-2.55,29.7,29.7,0,0,0,13.2-5.86c.94-.72,2-1.92,3.11-1.28s.61,2.21.48,3.31c-.45,3.8-1.6,7.12-4.92,9.68-6.93,5.34-14.75,8.53-23.13,10.54-3.42.82-6.72,2-10.12,2.92A3,3,0,0,1,559.53,330.6Z" transform="translate(-7.63 -192.79)"/><path class="cls-2" d="M54.45,304.5a9.13,9.13,0,0,1,3.43,1.87,37.66,37.66,0,0,0,14.91,6.21,27.82,27.82,0,0,1,16.91,10.9c1.54,2,2.89,4.21,4.3,6.34.34.51.82,1,.58,1.73-.76.51-1.4,0-2-.25-4.15-1.47-8.44-2.36-12.7-3.4a52.56,52.56,0,0,1-17.8-8c-.91-.64-1.81-1.31-2.72-2a10.77,10.77,0,0,1-4.87-9.12C54.43,307.46,54.45,306.11,54.45,304.5Z" transform="translate(-7.63 -192.79)"/><path class="cls-4" d="M69.26,258.05a4.82,4.82,0,0,1,.86,2.59,15.12,15.12,0,0,0,1.5,5,23.11,23.11,0,0,1,2.06,11.87,9.13,9.13,0,0,1-4.33,7.35,12.32,12.32,0,0,1-9.59,1.94c-7.38-1.65-14.93-2.47-22.23-4.5a8.1,8.1,0,0,1-2.54-1,7.17,7.17,0,0,1,4.36-.64,24.15,24.15,0,0,0,25.11-12.92c.8-1.56,2-2.85,2.74-4.48S68.24,259.93,69.26,258.05Z" transform="translate(-7.63 -192.79)"/><path class="cls-2" d="M272.47,421.06a82.28,82.28,0,0,1,13.63.65c4.42.45,8.76,1.7,13.15,2.47a62.19,62.19,0,0,1,15,4.91c2.83,1.28,5.41,3.07,8.32,4.21.67.26,1.16.91.47,1.48-1.93,1.6-3.27,3.71-5.06,5.42-.71.68-1.34.85-2-.07a13.43,13.43,0,0,0-5.12-4.23q-5.31-2.77-10.68-5.42c-4.36-2.15-9.12-2.79-13.83-3.63a149,149,0,0,0-20.93-2c-4.54-.15-9.05-.82-13.61-.8-1.29,0-2.53.35-3.8.4-.4,0-.86,0-.89-.56a.7.7,0,0,1,.6-.65,23.12,23.12,0,0,1,3-.63c4-.38,8-.52,11.9-1.08C265.94,421,269.2,421.21,272.47,421.06Z" transform="translate(-7.63 -192.79)"/><path class="cls-4" d="M584.54,258c.7.07.83.36.92.67a33.73,33.73,0,0,0,8.4,13.79c4.54,4.77,10,7.88,17,7.55,2-.1,4,.06,6,.1.47,0,1,0,1.31.45-.08.74-.7.7-1.21.84-5,1.29-10,1.91-15,2.87-2.35.45-4.68,1-7,1.49-4.54.93-8.5-.5-11.9-3.58a5.27,5.27,0,0,1-1.35-2.76,22.17,22.17,0,0,1,1-14.79A31.66,31.66,0,0,0,584.54,258Z" transform="translate(-7.63 -192.79)"/><path class="cls-2" d="M404.52,422.73c-.29.42-.71.3-1.07.28a79,79,0,0,0-14.31.82c-3,.37-6,.14-9.06.24-1,0-2,.29-3.08.36-4.3.29-8.53,1.06-12.79,1.62a86.17,86.17,0,0,0-13.68,3.33c-5.2,1.58-10,4.31-12.94,9.28-.41.69-.86,1.34-1.27,2-.25.41-.43.94-1,.85s-.44-.75-.57-1.17a7.49,7.49,0,0,0-3.42-3.86c-3-2-3-2.23,0-4.4a4.47,4.47,0,0,1,.81-.5c6-2.65,11.94-5.36,18.27-7.11S363.16,422,369.61,421a47,47,0,0,1,7.85-.6c2.7,0,5.42.15,8.13.18a58.69,58.69,0,0,1,10.24.81c2.41.45,4.94.14,7.37.65C403.71,422.15,404.34,422,404.52,422.73Z" transform="translate(-7.63 -192.79)"/><path class="cls-3" d="M332.81,444.64a4.72,4.72,0,0,1-.25,2c-1.35,3.16-2.27,6.47-3.38,9.71-.35,1-.53,2.53-1.79,2.58s-1.55-1.47-2-2.42c-1.54-3.24-2.92-6.55-4.62-9.72a5.59,5.59,0,0,1,.39-5.69,14.73,14.73,0,0,1,4.16-4.25,1.6,1.6,0,0,1,2-.23c1.71,1.41,3.69,2.55,4.7,4.67A6.71,6.71,0,0,1,332.81,444.64Z" transform="translate(-7.63 -192.79)"/><path class="cls-1" d="M317.13,337.43c-2.15,3.42-5.19,4.25-8.64,4.24-2.32,0-4.64,0-7,.14-4.49.27-8.94-.34-13.4-.57-2-.1-2.3-.52-2.35-2.55q-.48-21.94-.91-43.88a24.1,24.1,0,0,1,.16-2.87c.21-2.08,1-3,3.08-3.3a35.89,35.89,0,0,1,15.2.84c4.86,1.43,6.62,6.44,3.86,10.73a16.49,16.49,0,0,1-4.5,4.45A164,164,0,0,1,316,330.72c1.16-.44,1-1.07,1-1.57,0-4.23.16-8.47-.23-12.7a46.63,46.63,0,0,1,0-8.15c.23-2.7,1.12-3.48,3.83-3.47s5.27.11,7.91.21a4.7,4.7,0,0,1,3.31,1.15c.47.45,1.06.8.85,1.55s-1,1-1.71,1c-1,0-1.92.05-2.88.08-2.24.07-4.47.18-6.71.21-1,0-1.4.3-1.42,1.38-.09,3.6-.13,3.62,3.41,3.39a16.63,16.63,0,0,1,4.29.34c.65.13,1.27.4,1.41,1.13s-.39,1.32-1,1.74a4,4,0,0,1-2,.59c-1.44.09-2.87.21-4.31.21-1,0-1.44.31-1.43,1.37.08,5.35,0,10.71.19,16.06.07,2.71,1.53,3.84,4.22,3.69,2.08-.12,3.76-1.26,5.51-2.18s2.53-.95,3.12.05.14,1.66-1.41,2.8c-2.58,1.91-5.63,2.22-8.62,2.57-2.06.24-3.62-1-4.83-2.65A22.14,22.14,0,0,1,317.13,337.43Zm-17.82-30c-2.73,2-5.46,4-8.31,5.94a3.67,3.67,0,0,0-1.7,3.83,81.29,81.29,0,0,1,.18,10.29c-.12,3-.07,6.07-.15,9.1,0,1,.3,1.34,1.36,1.4,5.43.33,10.86.32,16.29.27a13.45,13.45,0,0,0,3.54-.57,2.45,2.45,0,0,0,1.93-2.19,8,8,0,0,0-.81-5.3C307.24,322.83,304.55,314.61,299.31,307.38Zm-10,1.7a1.2,1.2,0,0,0,.91-.12A31.06,31.06,0,0,0,299,303.6a24.36,24.36,0,0,0,4.56-4.21c1.23-1.64,1.24-2.67.12-4.36a4.52,4.52,0,0,0-3.18-1.94,32.51,32.51,0,0,0-9.77-.3c-1.15.15-1.6.55-1.67,1.78-.27,4.71.1,9.41.08,14.12C289.11,308.83,289.26,309,289.33,309.08Z" transform="translate(-7.63 -192.79)"/><path class="cls-1" d="M148.46,311.59a4.7,4.7,0,0,0-.32,2.5q-.12,12.35-.2,24.7a8.88,8.88,0,0,1-.27,2.85c-.46,1.36-1.31,2.15-2.3,2.1a3.19,3.19,0,0,1-2.51-2.29,11.41,11.41,0,0,1-.13-1.67,119.06,119.06,0,0,1,0-13.66c.36-10.31.24-20.62,0-30.93,0-.8,0-1.6,0-2.4a2.63,2.63,0,0,1,2.2-2.7c1.16-.14,2.09.62,2.42,2.15a22.42,22.42,0,0,1,.66,4.5c0,2.72.14,5.43.13,8.15,0,1.09.33,1.62,1.49,1.6,4.63-.09,9.26.49,13.88-.15,1.52-.21,1.64-.27,1.49-1.75a89,89,0,0,1-.14-9.58,11.06,11.06,0,0,1,.46-2.83,2.1,2.1,0,0,1,2.23-1.77,1.92,1.92,0,0,1,1.82,1.9,37.91,37.91,0,0,1,.29,3.82c.09,6.31,0,12.63.24,18.94.23,5.91.85,11.8,1.24,17.7.14,2.07.13,4.15.15,6.23a4.58,4.58,0,0,1-.8,3,1.63,1.63,0,0,1-2.82.11,5.23,5.23,0,0,1-1.07-2.63,45.49,45.49,0,0,1-.69-6.91c-.18-6.55-.72-13.09-.6-19.65,0-1.73,0-1.81-1.93-1.76C158.42,311.25,153.42,311.78,148.46,311.59Z" transform="translate(-7.63 -192.79)"/><path class="cls-1" d="M423.17,310.82a14.39,14.39,0,0,0,.06,4.55c2.27-.23,4.49.12,6.72.1.88,0,1.89,0,2.22,1s-.39,2-1.22,2.64a4.5,4.5,0,0,1-2.5.73,32.1,32.1,0,0,1-5.17-.11,2.45,2.45,0,0,0-.36,1.94c.19,4.63,0,9.28.38,13.9.15,1.82.41,2.21,2.16,2.61,2.28.52,4.36.45,6.07-1.57a4.29,4.29,0,0,1,5.36-1.33c.53.23.76,0,.89-.36.25-.76.37-1.56.64-2.31,2.59-7,4.81-14.22,8.12-21a9.86,9.86,0,0,1,3.06-3.94c1.16-.82,1.78-.67,2.57.51a1.07,1.07,0,0,1,.12.21c2.28,6,6.22,11.35,7.62,17.79.9,4.14,2.16,8.19,2.64,12.42.12,1,.41,2.11-.84,2.7a3.16,3.16,0,0,1-3.5-.79,40.25,40.25,0,0,1-2.54-3.48c-2.56-3.84-6.43-5.36-10.73-6-2-.29-2.24,0-2.84,2s-1.13,3.83-1.68,5.75a12,12,0,0,1-1.16,2.62,2.16,2.16,0,0,1-1.91,1.26c-1,0-1.34-.74-1.58-1.55-.09-.29-.07-.62-.39-.8-.54,0-.8.49-1.17.77-3.39,2.57-7.15,2.49-11,1.32a4.86,4.86,0,0,1-3.49-4.39,78.52,78.52,0,0,1-.4-11.73c0-5,.17-10.07.28-15.11.08-3.57,1.18-4.57,4.73-4.94s7,.16,10.53,0a2.93,2.93,0,0,1,2.21.77,1.57,1.57,0,0,1-.27,2.76,8.52,8.52,0,0,1-3.15,1.1A36.22,36.22,0,0,1,423.17,310.82Zm35.46,23.6a35.44,35.44,0,0,0-1.91-7.93c-1-2.53-2-5.06-3.07-7.53s-1.72-5-3.56-7.1c-2.23,3.24-6,13.07-6.12,15.87,2.84-.37,5.2,1,7.7,2C454.33,330.79,456,333.12,458.63,334.42Z" transform="translate(-7.63 -192.79)"/><path class="cls-1" d="M391.47,316.58c0,7.28,0,14.56,0,21.83a4.75,4.75,0,0,1-1.33,3.45,1.58,1.58,0,0,1-2.75-.27,5.11,5.11,0,0,1-.53-2.31c-.71-6-.45-12-.35-18s.24-12.15,0-18.23c-.12-3.19-.83-6.35-.47-9.56.11-1-.5-1-1.18-1l-7.44-.09a7.23,7.23,0,0,1-3.27-.61c-.84-.42-1.53-1-1.47-2s.84-1.48,1.67-1.85a5.26,5.26,0,0,1,2.12-.35c7.68-.06,15.35-.15,23-.13a34.65,34.65,0,0,1,5.47.64c1.93.32,3,1.25,2.9,2.32s-1.2,1.9-3.15,1.94c-3.84.08-7.68.08-11.51.12-2,0-2,0-2,2q0,11,0,22.07Z" transform="translate(-7.63 -192.79)"/><path class="cls-1" d="M276.89,315.11c.54-.9.2-1.6.21-2.28,0-1.28,0-2.56,0-3.83a2.14,2.14,0,0,1,1.8-2.23c1.12-.16,1.7.7,2.22,1.53a4.55,4.55,0,0,1,.47,2.56q-.13,14-.26,28.05a4.62,4.62,0,0,1-.48,2.55,1.88,1.88,0,0,1-1.8,1c-.88-.08-1.2-.74-1.33-1.47a11.34,11.34,0,0,1-.11-1.91c0-4.56-.07-9.11,0-13.67a6.81,6.81,0,0,0-1.12-3.82c-2.21-3.53-4.86-6.74-7.26-10.12a5.9,5.9,0,0,0-1-1.07c-.65-.55-1.16-.42-1.42.42a7.56,7.56,0,0,0-.22.93c-1.6,9.12-2.19,18.24-.29,27.39a7.59,7.59,0,0,1,.17,1.42,1.87,1.87,0,0,1-1.63,2c-1.12.2-1.57-.62-1.78-1.53a55.78,55.78,0,0,1-1.66-9.67,95.7,95.7,0,0,1,.29-16,54.72,54.72,0,0,1,1.34-6.32,5.87,5.87,0,0,1,1.42-2.47,3.25,3.25,0,0,1,4.7-.55,15,15,0,0,1,4.1,4.32A27.66,27.66,0,0,0,276.89,315.11Z" transform="translate(-7.63 -192.79)"/><path class="cls-1" d="M370.81,314.39a6.1,6.1,0,0,0,.22-3.18,7.69,7.69,0,0,1,.43-3.77c.26-.61.65-1.14,1.42-1.1s1.24.63,1.38,1.41a5.45,5.45,0,0,1,.12,1c0,5.69,1,11.3,1.21,17a117.79,117.79,0,0,1-.26,14.14,4.7,4.7,0,0,1-.58,2.3,1.4,1.4,0,0,1-2.52.07,4.59,4.59,0,0,1-.69-2.27,48.33,48.33,0,0,1-.3-7.42c.32-7.64.3-7.64-3.33-14.29-1-1.82-1.93-3.68-2.89-5.52a7.49,7.49,0,0,0-.69-1.26,4.64,4.64,0,0,0-3.46-1.89c-1.31,0-1.23,1.66-1.66,2.64a8.76,8.76,0,0,0-.7,3.51,97.46,97.46,0,0,0,.7,13.39c.43,3.33,1.44,6.55,1.54,9.92.06,1.82-.31,2.75-1.21,2.76-1.48,0-1.72-1.24-2-2.3a44.64,44.64,0,0,1-1.69-9.65c-.2-3.51-.47-7-.64-10.52a34.41,34.41,0,0,1,.52-7.63,8.55,8.55,0,0,1,1.93-4.05c2.19-2.65,5.27-2.82,7.65-.28a26.65,26.65,0,0,1,4,5.07A5.52,5.52,0,0,0,370.81,314.39Z" transform="translate(-7.63 -192.79)"/><path class="cls-1" d="M503,323.53c-.1-4-.42-9-.21-13.94.13-3,.65-3.66,3.59-4.54,4.11-1.23,8.1-.43,11.95,1,2.42.88,3.17,4.26,1.68,7.06a24.13,24.13,0,0,1-4.22,5.78c-1.45,1.45-1.39,1.46-.4,3.16.68,1.17,1.25,2.41,1.89,3.6,1.56,2.87,3,5.8,4.81,8.56a10.75,10.75,0,0,1,1.81,4.9,2.09,2.09,0,0,1-1.15,2.19c-.88.45-1.51-.06-2.12-.62a9.1,9.1,0,0,1-2.09-3.18,134.46,134.46,0,0,0-6.4-12.32c-.93-1.61-.94-1.6-2.65-.71a16.37,16.37,0,0,0-1.68.91,3.34,3.34,0,0,0-1.58,3c0,3,.21,6.07.44,9.09a8,8,0,0,1-.3,3.31c-.28.8-.69,1.52-1.66,1.41a1.82,1.82,0,0,1-1.72-1.71,13.29,13.29,0,0,1,0-1.91C503.17,333.87,503.27,329.15,503,323.53Zm3-1.54a45.56,45.56,0,0,0,7.87-6.54,19.58,19.58,0,0,0,3.49-4.54c.65-1.32.38-2-1-2.28a35.72,35.72,0,0,0-9.05-.45c-.8,0-1.33.41-1.33,1.34C506.07,313.49,506.06,317.45,506.06,322Z" transform="translate(-7.63 -192.79)"/><path class="cls-1" d="M412.3,319c-3.41,0-6.76,0-10.11,0-1.84,0-2,.3-2,2.13.08,6,.19,12,0,18a4.42,4.42,0,0,1-.43,2.56c-.46.67-.93,1.37-1.9,1.17a1.71,1.71,0,0,1-1.28-1.57,12.8,12.8,0,0,1-.23-2.14c0-2.4-.06-4.8,0-7.2a159.59,159.59,0,0,0-.44-17.74c-.12-1.51-.11-3-.14-4.55a3.76,3.76,0,0,1,.35-1.87,1.8,1.8,0,0,1,3.13-.41,4.83,4.83,0,0,1,1.2,2.83c0,.64,0,1.28,0,1.92-.07,3.68-.08,3.7,3.5,3.63a50.24,50.24,0,0,1,6.7-.12c1.19.14,1.48-.44,1.43-1.55a37.09,37.09,0,0,1,.13-4.07,6.11,6.11,0,0,1,.33-1.64c.28-.79.81-1.48,1.74-1.37a1.81,1.81,0,0,1,1.63,1.8c.12,1.35.21,2.71.25,4.06.26,9,.77,17.9.68,26.86a6.34,6.34,0,0,1,0,1,2.71,2.71,0,0,1-2.42,1.93c-1.12-.14-1.31-1-1.39-1.94a8.3,8.3,0,0,1,0-1c.16-6.24-.71-12.45-.51-18.7A3.76,3.76,0,0,0,412.3,319Z" transform="translate(-7.63 -192.79)"/><path class="cls-1" d="M216,324.31c0,4.16-.07,8.32,0,12.47a3.72,3.72,0,0,1-2.31,3.78,15.15,15.15,0,0,1-9.83,1.14c-3-.52-4.44-2.92-5-5.79a45.32,45.32,0,0,1-.56-7.17,56.88,56.88,0,0,1,1.18-15.5,11.66,11.66,0,0,1,1.42-3.79,4.49,4.49,0,0,1,1.3-1.4,1.33,1.33,0,0,1,1.57-.11c.46.32.42.83.32,1.31a5.12,5.12,0,0,1-.28.92c-2.21,5.3-2.29,10.92-2.33,16.51a24.28,24.28,0,0,0,1.25,7.78c.53,1.6,1.21,3.1,3.27,3.39a6.46,6.46,0,0,0,5.85-2c.63-.64.42-1.51.43-2.29.14-6.8.24-13.59.08-20.39a14.43,14.43,0,0,1,.23-3.1,2.07,2.07,0,0,1,2.1-1.91c1.2.14,1.53,1,1.62,2.05s.1,1.76.11,2.63c0,3.84,0,7.67,0,11.51Z" transform="translate(-7.63 -192.79)"/><path class="cls-1" d="M196.58,323.42a22.4,22.4,0,0,1-5.16,15.21,10,10,0,0,1-8.27,4.11,6.65,6.65,0,0,1-5.68-3,17.94,17.94,0,0,1-3.62-11.19c.18-5.77,1.27-11.27,4.33-16.25a14.14,14.14,0,0,1,1.82-2.52c1.74-1.78,3.57-3.62,6.36-3.23,3.53.49,6.63,1.75,8.32,5.28C196.24,315.1,196.73,317.49,196.58,323.42Zm-19.25,4.08c0,.56,0,1.12,0,1.67a18.25,18.25,0,0,0,1.08,6.1c1.6,4,5.09,5,8.67,2.65a11.05,11.05,0,0,0,4-4.93,29.64,29.64,0,0,0,2.57-14.45c-.31-3.74-1.82-6.69-5.49-8.29a2.9,2.9,0,0,0-3.32.31,22.73,22.73,0,0,0-4.24,4.19C177.85,318.58,177.47,323,177.33,327.5Z" transform="translate(-7.63 -192.79)"/><path class="cls-1" d="M481.85,321.67c0-3.59,0-7.19,0-10.78a14.11,14.11,0,0,1,.28-2.62c.29-1.48.9-2.14,2.41-2.21,3.75-.18,7.49-.53,11.25-.34l.24,0c1.69.22,2.67.92,2.61,2-.08,1.46-1.28,1.69-2.37,1.95a13.86,13.86,0,0,1-3.81.29c-2.15-.09-4.31-.13-6.47-.12-1.21,0-1.28.21-1.21,3.23,0,.87-.39,2,1.25,2,2.07-.1,4.15-.12,6.22-.17,1,0,2,0,2.21,1.28.17,1-.76,2-2.09,2.2a26.94,26.94,0,0,1-5.5.07c-2.09-.08-2.07,0-2,2.07.17,3.75.34,7.5.42,11.25A20.37,20.37,0,0,0,486,336a3.39,3.39,0,0,0,3,2.72,6.07,6.07,0,0,0,5.7-1.76,13.39,13.39,0,0,1,2.53-2.18,1.36,1.36,0,0,1,1.77.08,1.43,1.43,0,0,1,.22,1.77,1.72,1.72,0,0,1-.23.42c-2.62,3.07-5.79,5.3-9.89,5.72-2.61.27-5.28-1.85-6.31-4.67a16.93,16.93,0,0,1-1.11-5.13A67.18,67.18,0,0,1,481.85,321.67Z" transform="translate(-7.63 -192.79)"/><path class="cls-1" d="M336.22,323c0-4,0-8,0-12a12.56,12.56,0,0,1,.17-2.38c.43-2.16,1.41-3,3.62-3.09a71.37,71.37,0,0,0,8.84-.38,4.1,4.1,0,0,1,3.7,1.31,1.14,1.14,0,0,1-.5,2,6.9,6.9,0,0,1-1.89.17c-3.12,0-6.23,0-9.35,0-1.74,0-1.74.05-1.7,1.75,0,.4,0,.8.08,1.2.16,1.61.25,1.74,1.86,1.82,1,.05,2.07,0,3.11,0a7.13,7.13,0,0,1,3.06.45,1.75,1.75,0,0,1,1.23,2.06,1.62,1.62,0,0,1-1.68,1.42c-1.44,0-2.87,0-4.31,0-.64,0-1.28,0-1.92,0-.9,0-1.28.33-1.31,1.26-.13,5.51-.41,11,.37,16.51a4.08,4.08,0,0,0,6.79,2.71,28,28,0,0,0,2.23-2.17,4.23,4.23,0,0,1,3.26-1.25c1.94.08,2.77,1.38,1.89,3.07a5.1,5.1,0,0,1-1.84,2.18c-2.94,1.69-6,2.92-9.53,2.68-4-.28-6.29-2.6-6.32-6.64,0-4.23,0-8.47,0-12.7Z" transform="translate(-7.63 -192.79)"/><path class="cls-1" d="M246.68,309.47a3.08,3.08,0,0,0-.23,1.73c0,1.11-.41,2.48.28,3.26s1.93-.14,2.95,0a8.57,8.57,0,0,1,3.06.41c.77.36,1.41.89,1.27,1.82a1.82,1.82,0,0,1-1.54,1.64c-1.1.16-2.23.15-3.34.2-2.34.11-2.48.12-2.26,2.5.37,4-.07,8,.4,12a12,12,0,0,0,.28,1.65c1.07,4,4,5.1,7.44,2.75,1.73-1.17,2.71-1.16,3.8,0a1.68,1.68,0,0,1,.11,2.55,6.3,6.3,0,0,1-1.27,1.08c-3.09,2-6.37,1.91-9.65.68-2.4-.9-3.4-3.05-4-5.37a13.77,13.77,0,0,1-.28-3.09c-.06-4.87-.06-9.75-.12-14.63,0-3-.58-6-.42-9.09.17-3.34.74-4,4-4.54a32.05,32.05,0,0,1,7.64.14,2.34,2.34,0,0,1,2.31,2c.33,1.76-.09,2.35-1.91,2.37C252.4,309.48,249.61,309.47,246.68,309.47Z" transform="translate(-7.63 -192.79)"/><path class="cls-1" d="M229.87,307.1c2.15-.1,4.31-.2,6.46-.28a9.43,9.43,0,0,1,1.91.09c1.4.24,2,.87,1.9,2-.09,1.55-.67,2.19-2.23,2.18s-3.35-.24-5-.23c-2.24,0-2.35.17-2.09,2.32,1,7.8.37,15.64.54,23.45a10.55,10.55,0,0,1-.78,4.46,2,2,0,0,1-2.24,1.41c-1.06-.13-1.41-.93-1.61-1.83a9.32,9.32,0,0,1-.11-3.1,166.2,166.2,0,0,0,.69-19.38c0-2-.32-4-.5-6-.09-1-.47-1.45-1.46-1.44s-2.08,0-3.11,0a6.39,6.39,0,0,1-1.87-.3,1.71,1.71,0,0,1-1.27-1.82c.09-.86.77-1.15,1.49-1.34a12.74,12.74,0,0,1,3.57-.28c1.92,0,3.83,0,5.75,0Z" transform="translate(-7.63 -192.79)"/><path class="cls-1" d="M466.86,326.16c.14-4.75-.26-9.31.21-13.85.09-.92-.22-1.36-1.11-1.42s-2.07-.12-3.11-.16a6,6,0,0,1-2.76-.71,1.74,1.74,0,0,1-1-1.76,1.61,1.61,0,0,1,1.34-1.49,15.33,15.33,0,0,1,2.6-.4c3.43-.16,6.87-.27,10.3-.4a13.59,13.59,0,0,1,4,.43c1.23.33,1.5,1.07.9,2.16a3.09,3.09,0,0,1-2.44,1.73c-1.11.12-2.22.29-3.34.34s-1.45.5-1.36,1.51c0,.32,0,.64,0,1,.22,8.88-.43,17.74-.52,26.61a8.36,8.36,0,0,1-.17,1.9,1.66,1.66,0,0,1-1.59,1.24,1.56,1.56,0,0,1-1.67-1.09,6.13,6.13,0,0,1-.33-2.59C466.86,334.75,466.86,330.36,466.86,326.16Z" transform="translate(-7.63 -192.79)"/></svg>