<?xml version="1.0" standalone="no"?>
<!DOCTYPE svg PUBLIC "-//W3C//DTD SVG 20010904//EN"
 "http://www.w3.org/TR/2001/REC-SVG-20010904/DTD/svg10.dtd">
<svg version="1.0" xmlns="http://www.w3.org/2000/svg"
 width="200.000000pt" height="200.000000pt" viewBox="0 0 200.000000 200.000000"
 preserveAspectRatio="xMidYMid meet">
<metadata>
Created by potrace 1.14, written by Peter Selinger 2001-2017
</metadata>
<g transform="translate(0.000000,200.000000) scale(0.100000,-0.100000)"
fill="#000000" stroke="none">
<path d="M1660 1923 c-102 -11 -402 -68 -525 -99 -162 -41 -317 -110 -404
-179 -31 -24 -87 -68 -125 -97 -132 -100 -343 -407 -381 -553 -8 -33 -15 -92
-15 -132 0 -83 32 -242 58 -285 31 -54 108 -96 212 -117 52 -11 138 -29 190
-40 52 -11 110 -21 128 -21 18 0 89 -18 157 -41 129 -42 214 -89 273 -150 42
-43 132 -176 132 -195 0 -11 19 -14 90 -14 50 0 90 4 90 8 0 24 -91 146 -159
213 -58 57 -98 87 -169 123 -51 26 -108 53 -128 59 l-35 13 45 31 c59 42 79
74 84 137 3 44 -3 71 -39 167 l-44 114 1 135 c0 126 3 146 42 294 46 174 70
234 138 344 50 79 78 99 174 123 30 7 98 13 150 14 l95 0 148 -82 c81 -46 150
-83 152 -83 3 0 5 72 5 160 l0 160 -152 -2 c-84 0 -169 -3 -188 -5z"/>
<path d="M695 263 c-11 -3 -31 -15 -44 -26 -21 -20 -23 -27 -18 -92 4 -38 11
-87 17 -108 l11 -37 347 0 347 0 -25 21 c-52 42 -114 79 -159 93 -25 8 -102
31 -171 51 -77 23 -141 49 -166 67 -41 29 -98 42 -139 31z"/>
<path d="M66 100 c-42 -13 -66 -39 -66 -72 l0 -28 323 0 c197 0 316 4 307 10
-9 5 -90 27 -180 50 -172 43 -325 59 -384 40z"/>
</g>
</svg>
